<svg width="334" height="48" viewBox="0 0 334 48" fill="none" xmlns="http://www.w3.org/2000/svg">
<g clip-path="url(#clip0_6_9)">
<path fill-rule="evenodd" clip-rule="evenodd" d="M22.6727 8.40999C22.6727 7.35121 22.4263 6.30696 21.9527 5.35995C21.5434 4.54135 21.3031 3.64876 21.246 2.73532L21.1091 0.545441L20.9723 2.73524C20.9151 3.64869 20.6748 4.54131 20.2655 5.35992C19.792 6.30695 19.5455 7.35123 19.5455 8.41003V39.5899C19.5455 40.6487 19.792 41.693 20.2655 42.6401C20.6748 43.4587 20.9151 44.3513 20.9723 45.2648L21.1091 47.4545L21.246 45.2647C21.3031 44.3512 21.5434 43.4587 21.9527 42.64C22.4263 41.693 22.6727 40.6488 22.6727 39.5899V8.40999ZM14.1345 8.48722C14.6081 9.43423 14.8545 10.4785 14.8545 11.5373V36.4627C14.8545 37.5215 14.6081 38.5658 14.1345 39.5128C13.7252 40.3314 13.4849 41.224 13.4277 42.1374L13.2909 44.3273L13.1541 42.1374C13.0969 41.224 12.8566 40.3314 12.4473 39.5128C11.9737 38.5658 11.7273 37.5215 11.7273 36.4627V11.5373C11.7273 10.4785 11.9737 9.43423 12.4473 8.48722C12.8566 7.66862 13.0969 6.77601 13.1541 5.86257L13.2909 3.67272L13.4277 5.86257C13.4849 6.77601 13.7252 7.66862 14.1345 8.48722ZM10.9455 14.6646C10.9455 13.6057 10.699 12.5615 10.2254 11.6145C9.81612 10.7959 9.57578 9.90327 9.51869 8.98982L9.38182 6.79998L9.24495 8.98982C9.18786 9.90327 8.94751 10.7959 8.53821 11.6145C8.0647 12.5615 7.81818 13.6057 7.81818 14.6646V33.3354C7.81818 34.3942 8.0647 35.4385 8.53821 36.3855C8.94751 37.2041 9.18786 38.0967 9.24495 39.0101L9.38182 41.2L9.51869 39.0101C9.57578 38.0967 9.81612 37.2041 10.2254 36.3855C10.699 35.4385 10.9455 34.3942 10.9455 33.3354V14.6646ZM6.31634 17.869C6.78985 18.816 7.03636 19.8603 7.03636 20.9191V27.0808C7.03636 28.1396 6.78985 29.1839 6.31634 30.1309C5.90704 30.9496 5.66669 31.8421 5.60959 32.7556L5.47273 34.9454L5.33586 32.7556C5.27877 31.8421 5.03842 30.9496 4.62912 30.1309C4.15561 29.1839 3.90909 28.1396 3.90909 27.0808V20.9191C3.90909 19.8603 4.15561 18.816 4.62912 17.869C5.03842 17.0504 5.27877 16.1578 5.33586 15.2444L5.47273 13.0545L5.60959 15.2444C5.66669 16.1578 5.90704 17.0504 6.31634 17.869ZM3.12712 24L3.12727 24.0464V23.9536L3.12712 24ZM0 24.0464L0.000157753 24C0.00725063 25.0429 0.253433 26.0705 0.720026 27.0036C1.12933 27.8223 1.36968 28.7148 1.42677 29.6283L1.56364 31.8182L1.7005 29.6283C1.7576 28.7148 1.99795 27.8223 2.40725 27.0036C2.87384 26.0705 3.12002 25.0429 3.12712 24C3.12002 22.957 2.87384 21.9294 2.40725 20.9963C1.99795 20.1777 1.7576 19.2851 1.7005 18.3717L1.56364 16.1818L1.42677 18.3717C1.36968 19.2851 1.12933 20.1777 0.720026 20.9963C0.253433 21.9294 0.00725065 22.957 0.000157753 24L0 23.9536V24.0464ZM18.0436 5.35994C18.5172 6.30695 18.7636 7.35122 18.7636 8.41001V39.5899C18.7636 40.6488 18.5172 41.693 18.0436 42.64C17.6343 43.4587 17.394 44.3512 17.3368 45.2647L17.2 47.4545L17.0632 45.2647C17.006 44.3512 16.7657 43.4587 16.3564 42.64C15.8828 41.693 15.6364 40.6488 15.6364 39.5899V8.41001C15.6364 7.35122 15.8828 6.30695 16.3564 5.35994C16.7657 4.54133 17.006 3.64872 17.0632 2.73528L17.2 0.545441L17.3368 2.73528C17.394 3.64872 17.6343 4.54133 18.0436 5.35994ZM25.8618 5.35994C26.3353 6.30695 26.5818 7.35122 26.5818 8.41001V39.5899C26.5818 40.6488 26.3353 41.693 25.8618 42.64C25.4525 43.4587 25.2122 44.3512 25.155 45.2647L25.0182 47.4545L24.8814 45.2647C24.8242 44.3512 24.5839 43.4587 24.1746 42.64C23.701 41.693 23.4545 40.6488 23.4545 39.5899V8.41001C23.4545 7.35122 23.701 6.30695 24.1746 5.35994C24.5839 4.54133 24.8242 3.64872 24.8814 2.73528L25.0182 0.545441L25.155 2.73528C25.2122 3.64872 25.4525 4.54133 25.8618 5.35994ZM30.4909 11.5373C30.4909 10.4785 30.2444 9.43423 29.7709 8.48722C29.3616 7.66862 29.1213 6.77601 29.0641 5.86257L28.9273 3.67272L28.7905 5.86257C28.7333 6.77601 28.493 7.66862 28.0837 8.48722C27.6101 9.43423 27.3636 10.4785 27.3636 11.5373V36.4627C27.3636 37.5215 27.6101 38.5658 28.0837 39.5128C28.493 40.3314 28.7333 41.224 28.7905 42.1374L28.9273 44.3273L29.0641 42.1374C29.1213 41.224 29.3616 40.3314 29.7709 39.5128C30.2444 38.5658 30.4909 37.5215 30.4909 36.4627V11.5373ZM33.6799 11.6145C34.1535 12.5615 34.4 13.6057 34.4 14.6646V33.3354C34.4 34.3942 34.1535 35.4385 33.6799 36.3855C33.2707 37.2041 33.0304 38.0967 32.9732 39.0101L32.8364 41.2L32.6995 39.0101C32.6424 38.0967 32.4021 37.2041 31.9928 36.3855C31.5193 35.4385 31.2727 34.3942 31.2727 33.3354V14.6646C31.2727 13.6057 31.5193 12.5615 31.9928 11.6145C32.4021 10.7959 32.6424 9.90327 32.6995 8.98982L32.8364 6.79998L32.9732 8.98982C33.0304 9.90327 33.2707 10.7959 33.6799 11.6145ZM38.3091 20.9191C38.3091 19.8603 38.0626 18.816 37.589 17.869C37.1798 17.0504 36.9394 16.1578 36.8823 15.2444L36.7455 13.0545L36.6086 15.2444C36.5515 16.1578 36.3112 17.0504 35.9019 17.869C35.4284 18.816 35.1818 19.8603 35.1818 20.9191V27.0808C35.1818 28.1396 35.4284 29.1839 35.9019 30.1309C36.3112 30.9496 36.5515 31.8421 36.6086 32.7556L36.7455 34.9454L36.8823 32.7556C36.9394 31.8421 37.1798 30.9496 37.589 30.1309C38.0626 29.1839 38.3091 28.1396 38.3091 27.0808V20.9191ZM42.218 24C42.2181 24.0154 42.2182 24.0309 42.2182 24.0464V23.9536C42.2182 23.9691 42.2181 23.9845 42.218 24ZM39.0911 24C39.0981 25.0429 39.3443 26.0705 39.811 27.0036C40.2202 27.8223 40.4606 28.7148 40.5177 29.6283L40.6545 31.8182L40.7914 29.6283C40.8485 28.7148 41.0888 27.8223 41.4981 27.0036C41.9648 26.0705 42.2109 25.0429 42.218 24C42.2109 22.957 41.9648 21.9294 41.4981 20.9963C41.0888 20.1777 40.8485 19.2851 40.7914 18.3717L40.6545 16.1818L40.5177 18.3717C40.4606 19.2851 40.2202 20.1777 39.811 20.9963C39.3443 21.9294 39.0981 22.957 39.0911 24ZM39.0911 24C39.091 23.9845 39.0909 23.9691 39.0909 23.9536V24.0464C39.0909 24.0309 39.091 24.0154 39.0911 24Z" fill="#B0FFBD"/>
</g>
<path d="M69.822 36.5V12.7H74.378L84.51 29.496H82.096L92.058 12.7H96.58L96.648 36.5H91.48L91.446 20.622H92.398L84.442 33.984H81.96L73.834 20.622H74.99V36.5H69.822ZM112.869 36.908C109.491 36.908 106.851 35.9673 104.947 34.086C103.043 32.2047 102.091 29.5187 102.091 26.028V12.7H107.599V25.824C107.599 28.0907 108.063 29.7227 108.993 30.72C109.922 31.7173 111.225 32.216 112.903 32.216C114.58 32.216 115.883 31.7173 116.813 30.72C117.742 29.7227 118.207 28.0907 118.207 25.824V12.7H123.647V26.028C123.647 29.5187 122.695 32.2047 120.791 34.086C118.887 35.9673 116.246 36.908 112.869 36.908ZM136.91 36.908C135.006 36.908 133.181 36.6587 131.436 36.16C129.69 35.6387 128.285 34.97 127.22 34.154L129.09 30.006C130.11 30.7313 131.311 31.332 132.694 31.808C134.099 32.2613 135.516 32.488 136.944 32.488C138.032 32.488 138.904 32.386 139.562 32.182C140.242 31.9553 140.74 31.6493 141.058 31.264C141.375 30.8787 141.534 30.4367 141.534 29.938C141.534 29.3033 141.284 28.8047 140.786 28.442C140.287 28.0567 139.63 27.7507 138.814 27.524C137.998 27.2747 137.091 27.048 136.094 26.844C135.119 26.6173 134.133 26.3453 133.136 26.028C132.161 25.7107 131.266 25.3027 130.45 24.804C129.634 24.3053 128.965 23.648 128.444 22.832C127.945 22.016 127.696 20.9733 127.696 19.704C127.696 18.344 128.058 17.1087 128.784 15.998C129.532 14.8647 130.642 13.9693 132.116 13.312C133.612 12.632 135.482 12.292 137.726 12.292C139.222 12.292 140.695 12.4733 142.146 12.836C143.596 13.176 144.877 13.6973 145.988 14.4L144.288 18.582C143.177 17.9473 142.066 17.4827 140.956 17.188C139.845 16.8707 138.757 16.712 137.692 16.712C136.626 16.712 135.754 16.8367 135.074 17.086C134.394 17.3353 133.906 17.664 133.612 18.072C133.317 18.4573 133.17 18.9107 133.17 19.432C133.17 20.044 133.419 20.5427 133.918 20.928C134.416 21.2907 135.074 21.5853 135.89 21.812C136.706 22.0387 137.601 22.2653 138.576 22.492C139.573 22.7187 140.559 22.9793 141.534 23.274C142.531 23.5687 143.438 23.9653 144.254 24.464C145.07 24.9627 145.727 25.62 146.226 26.436C146.747 27.252 147.008 28.2833 147.008 29.53C147.008 30.8673 146.634 32.0913 145.886 33.202C145.138 34.3127 144.016 35.208 142.52 35.888C141.046 36.568 139.176 36.908 136.91 36.908ZM150.771 36.5V12.7H156.279V36.5H150.771ZM173.317 36.908C171.481 36.908 169.77 36.6133 168.183 36.024C166.619 35.412 165.259 34.5507 164.103 33.44C162.947 32.3293 162.041 31.026 161.383 29.53C160.749 28.034 160.431 26.3907 160.431 24.6C160.431 22.8093 160.749 21.166 161.383 19.67C162.041 18.174 162.947 16.8707 164.103 15.76C165.282 14.6493 166.653 13.7993 168.217 13.21C169.781 12.598 171.493 12.292 173.351 12.292C175.414 12.292 177.273 12.6547 178.927 13.38C180.605 14.0827 182.01 15.1253 183.143 16.508L179.607 19.772C178.791 18.8427 177.885 18.1513 176.887 17.698C175.89 17.222 174.802 16.984 173.623 16.984C172.513 16.984 171.493 17.1653 170.563 17.528C169.634 17.8907 168.829 18.412 168.149 19.092C167.469 19.772 166.937 20.5767 166.551 21.506C166.189 22.4353 166.007 23.4667 166.007 24.6C166.007 25.7333 166.189 26.7647 166.551 27.694C166.937 28.6233 167.469 29.428 168.149 30.108C168.829 30.788 169.634 31.3093 170.563 31.672C171.493 32.0347 172.513 32.216 173.623 32.216C174.802 32.216 175.89 31.9893 176.887 31.536C177.885 31.06 178.791 30.346 179.607 29.394L183.143 32.658C182.01 34.0407 180.605 35.0947 178.927 35.82C177.273 36.5453 175.403 36.908 173.317 36.908ZM188.893 36.772C187.987 36.772 187.205 36.466 186.547 35.854C185.913 35.2193 185.595 34.4147 185.595 33.44C185.595 32.4653 185.913 31.6833 186.547 31.094C187.205 30.482 187.987 30.176 188.893 30.176C189.823 30.176 190.605 30.482 191.239 31.094C191.874 31.6833 192.191 32.4653 192.191 33.44C192.191 34.4147 191.874 35.2193 191.239 35.854C190.605 36.466 189.823 36.772 188.893 36.772ZM200.577 36.5L192.791 12.7H198.503L205.269 33.78H202.413L209.485 12.7H214.585L221.385 33.78H218.631L225.567 12.7H230.837L223.051 36.5H217.135L211.117 18.004H212.681L206.493 36.5H200.577ZM245.206 36.908C243.325 36.908 241.58 36.602 239.97 35.99C238.384 35.378 237.001 34.5167 235.822 33.406C234.666 32.2953 233.76 30.992 233.102 29.496C232.468 28 232.15 26.368 232.15 24.6C232.15 22.832 232.468 21.2 233.102 19.704C233.76 18.208 234.678 16.9047 235.856 15.794C237.035 14.6833 238.418 13.822 240.004 13.21C241.591 12.598 243.314 12.292 245.172 12.292C247.054 12.292 248.776 12.598 250.34 13.21C251.927 13.822 253.298 14.6833 254.454 15.794C255.633 16.9047 256.551 18.208 257.208 19.704C257.866 21.1773 258.194 22.8093 258.194 24.6C258.194 26.368 257.866 28.0113 257.208 29.53C256.551 31.026 255.633 32.3293 254.454 33.44C253.298 34.528 251.927 35.378 250.34 35.99C248.776 36.602 247.065 36.908 245.206 36.908ZM245.172 32.216C246.238 32.216 247.212 32.0347 248.096 31.672C249.003 31.3093 249.796 30.788 250.476 30.108C251.156 29.428 251.678 28.6233 252.04 27.694C252.426 26.7647 252.618 25.7333 252.618 24.6C252.618 23.4667 252.426 22.4353 252.04 21.506C251.678 20.5767 251.156 19.772 250.476 19.092C249.819 18.412 249.037 17.8907 248.13 17.528C247.224 17.1653 246.238 16.984 245.172 16.984C244.107 16.984 243.121 17.1653 242.214 17.528C241.33 17.8907 240.548 18.412 239.868 19.092C239.188 19.772 238.656 20.5767 238.27 21.506C237.908 22.4353 237.726 23.4667 237.726 24.6C237.726 25.7107 237.908 26.742 238.27 27.694C238.656 28.6233 239.177 29.428 239.834 30.108C240.514 30.788 241.308 31.3093 242.214 31.672C243.121 32.0347 244.107 32.216 245.172 32.216ZM262.334 36.5V12.7H272.636C274.766 12.7 276.602 13.0513 278.144 13.754C279.685 14.434 280.875 15.42 281.714 16.712C282.552 18.004 282.972 19.5453 282.972 21.336C282.972 23.104 282.552 24.634 281.714 25.926C280.875 27.1953 279.685 28.17 278.144 28.85C276.602 29.53 274.766 29.87 272.636 29.87H265.394L267.842 27.456V36.5H262.334ZM277.464 36.5L271.514 27.864H277.396L283.414 36.5H277.464ZM267.842 28.068L265.394 25.484H272.33C274.03 25.484 275.299 25.1213 276.138 24.396C276.976 23.648 277.396 22.628 277.396 21.336C277.396 20.0213 276.976 19.0013 276.138 18.276C275.299 17.5507 274.03 17.188 272.33 17.188H265.394L267.842 14.57V28.068ZM287.336 36.5V12.7H292.844V32.012H304.778V36.5H287.336ZM307.855 36.5V12.7H318.667C321.251 12.7 323.529 13.1987 325.501 14.196C327.473 15.1707 329.015 16.542 330.125 18.31C331.236 20.078 331.791 22.1747 331.791 24.6C331.791 27.0027 331.236 29.0993 330.125 30.89C329.015 32.658 327.473 34.0407 325.501 35.038C323.529 36.0127 321.251 36.5 318.667 36.5H307.855ZM313.363 31.978H318.395C319.982 31.978 321.353 31.6833 322.509 31.094C323.688 30.482 324.595 29.6207 325.229 28.51C325.887 27.3993 326.215 26.096 326.215 24.6C326.215 23.0813 325.887 21.778 325.229 20.69C324.595 19.5793 323.688 18.7293 322.509 18.14C321.353 17.528 319.982 17.222 318.395 17.222H313.363V31.978Z" fill="#F9A23B"/>
<defs>
<clipPath id="clip0_6_9">
<rect width="43" height="48" fill="white"/>
</clipPath>
</defs>
</svg>
